<svg id="home" xmlns="http://www.w3.org/2000/svg" width="26.839" height="29.557" viewBox="0 0 26.839 29.557">
  <g id="Grupo_14230" data-name="Grupo 14230" transform="translate(0 0)">
    <path id="Trazado_25374" data-name="Trazado 25374" d="M24.813,30.532H6.026A3.954,3.954,0,0,1,2,26.506V11.744a1.221,1.221,0,0,1,.537-1.074L14.614,1.277a1.221,1.221,0,0,1,1.61,0L28.3,10.671a1.22,1.22,0,0,1,.537,1.074V26.506A3.954,3.954,0,0,1,24.813,30.532ZM4.684,12.415V26.506a1.268,1.268,0,0,0,1.342,1.342H24.813a1.268,1.268,0,0,0,1.342-1.342V12.415L15.42,4.1Z" transform="translate(-2 -0.975)" fill="#187385"/>
  </g>
  <g id="Grupo_14231" data-name="Grupo 14231" transform="translate(8.052 13.453)">
    <path id="Trazado_25375" data-name="Trazado 25375" d="M17.394,27.1a1.268,1.268,0,0,1-1.342-1.342V13.684H10.684V25.762A1.268,1.268,0,0,1,9.342,27.1,1.268,1.268,0,0,1,8,25.762V12.342A1.268,1.268,0,0,1,9.342,11h8.052a1.268,1.268,0,0,1,1.342,1.342v13.42A1.268,1.268,0,0,1,17.394,27.1Z" transform="translate(-8 -11)" fill="#187385"/>
  </g>
</svg>
