<svg id="info" xmlns="http://www.w3.org/2000/svg" width="32.522" height="32.522" viewBox="0 0 32.522 32.522">
  <g id="Grupo_14237" data-name="Grupo 14237" transform="translate(0 0)">
    <path id="Trazado_25381" data-name="Trazado 25381" d="M17.261,33.522A16.261,16.261,0,1,1,33.522,17.261,16.214,16.214,0,0,1,17.261,33.522Zm0-29.566a13.3,13.3,0,1,0,13.3,13.3A13.249,13.249,0,0,0,17.261,3.957Z" transform="translate(-1 -1)" fill="#e03224"/>
  </g>
  <g id="Grupo_14238" data-name="Grupo 14238" transform="translate(14.783 14.783)">
    <path id="Trazado_25382" data-name="Trazado 25382" d="M12.478,19.87A1.4,1.4,0,0,1,11,18.391V12.478A1.4,1.4,0,0,1,12.478,11a1.4,1.4,0,0,1,1.478,1.478v5.913A1.4,1.4,0,0,1,12.478,19.87Z" transform="translate(-11 -11)" fill="#e03224"/>
  </g>
  <g id="Grupo_14239" data-name="Grupo 14239" transform="translate(14.783 8.87)">
    <path id="Trazado_25383" data-name="Trazado 25383" d="M12.478,9.957A1.4,1.4,0,0,1,11,8.478,1.4,1.4,0,0,1,12.478,7h0a1.4,1.4,0,0,1,1.478,1.478A1.4,1.4,0,0,1,12.478,9.957Z" transform="translate(-11 -7)" fill="#e03224"/>
  </g>
</svg>
