<svg id="mail" xmlns="http://www.w3.org/2000/svg" width="30.184" height="24.696" viewBox="0 0 30.184 24.696">
  <g id="Grupo_14288" data-name="Grupo 14288" transform="translate(0 0)">
    <path id="Trazado_25433" data-name="Trazado 25433" d="M27.068,27.7H5.116A4.043,4.043,0,0,1,1,23.58V7.116A4.043,4.043,0,0,1,5.116,3H27.068a4.043,4.043,0,0,1,4.116,4.116V23.58A4.043,4.043,0,0,1,27.068,27.7ZM5.116,5.744A1.3,1.3,0,0,0,3.744,7.116V23.58a1.3,1.3,0,0,0,1.372,1.372H27.068A1.3,1.3,0,0,0,28.44,23.58V7.116a1.3,1.3,0,0,0-1.372-1.372Z" transform="translate(-1 -3)" fill="#2d2d2d"/>
  </g>
  <g id="Grupo_14289" data-name="Grupo 14289" transform="translate(0.035 2.779)">
    <path id="Trazado_25434" data-name="Trazado 25434" d="M16.083,17.339a1.95,1.95,0,0,1-.823-.274L1.539,7.46a1.451,1.451,0,0,1-.274-1.921,1.451,1.451,0,0,1,1.921-.274l12.9,9.055,12.9-9.055a1.451,1.451,0,0,1,1.921.274,1.451,1.451,0,0,1-.274,1.921l-13.72,9.6A1.95,1.95,0,0,1,16.083,17.339Z" transform="translate(-1.026 -5.026)" fill="#2d2d2d"/>
  </g>
</svg>
