<svg xmlns="http://www.w3.org/2000/svg" width="39.412" height="32.397" viewBox="0 0 39.412 32.397">
  <g id="Grupo_14640" data-name="Grupo 14640" transform="translate(14397.683 11853)">
    <path id="Sustracción_1" data-name="Sustracción 1" d="M21.749,31.9H4.35A4.272,4.272,0,0,1,0,27.548V4.35A4.272,4.272,0,0,1,4.35,0h17.4A4.272,4.272,0,0,1,26.1,4.35V9.718a10.833,10.833,0,0,0-2.9.686V4.35a1.373,1.373,0,0,0-1.45-1.45H4.35A1.373,1.373,0,0,0,2.9,4.35v23.2A1.373,1.373,0,0,0,4.35,29H20.458a10.68,10.68,0,0,0,4.027,1.972A4.359,4.359,0,0,1,21.749,31.9Zm-8.7-5.8a1.37,1.37,0,1,1,1.051-.4A1.446,1.446,0,0,1,13.049,26.1Z" transform="translate(-14397.683 -11853)" fill="#e03224"/>
    <g id="zoom-out" transform="translate(-14380.039 -11842.372)">
      <g id="Grupo_14629" data-name="Grupo 14629" transform="translate(0 0)">
        <path id="Trazado_25792" data-name="Trazado 25792" d="M11.8,21.592a9.8,9.8,0,1,1,9.8-9.8A9.755,9.755,0,0,1,11.8,21.592Zm0-17.415A7.619,7.619,0,1,0,19.415,11.8,7.572,7.572,0,0,0,11.8,4.177Z" transform="translate(-2 -2)" fill="#e03224"/>
      </g>
      <g id="Grupo_14630" data-name="Grupo 14630" transform="translate(14.912 14.912)">
        <path id="Trazado_25793" data-name="Trazado 25793" d="M21.469,22.557a.988.988,0,0,1-.762-.327l-4.68-4.68a1.078,1.078,0,1,1,1.524-1.524l4.68,4.68a1.052,1.052,0,0,1,0,1.524A.988.988,0,0,1,21.469,22.557Z" transform="translate(-15.7 -15.7)" fill="#e03224"/>
      </g>
    </g>
  </g>
</svg>
