<svg id="tablet" xmlns="http://www.w3.org/2000/svg" width="21.829" height="26.68" viewBox="0 0 21.829 26.68">
  <g id="Grupo_14514" data-name="Grupo 14514" transform="translate(0 0)">
    <path id="Trazado_25666" data-name="Trazado 25666" d="M21.191,27.68H6.638A3.573,3.573,0,0,1,3,24.042V4.638A3.573,3.573,0,0,1,6.638,1H21.191a3.573,3.573,0,0,1,3.638,3.638v19.4A3.573,3.573,0,0,1,21.191,27.68ZM6.638,3.425A1.146,1.146,0,0,0,5.425,4.638v19.4a1.146,1.146,0,0,0,1.213,1.213H21.191A1.146,1.146,0,0,0,22.4,24.042V4.638a1.146,1.146,0,0,0-1.213-1.213Z" transform="translate(-3 -1)" fill="#2d2d2d"/>
  </g>
  <g id="Grupo_14515" data-name="Grupo 14515" transform="translate(9.702 19.404)">
    <path id="Trazado_25667" data-name="Trazado 25667" d="M12.213,19.425a1.213,1.213,0,1,1,0-2.425h0a1.213,1.213,0,1,1,0,2.425Z" transform="translate(-11 -17)" fill="#2d2d2d"/>
  </g>
</svg>
