<svg id="x-circle" xmlns="http://www.w3.org/2000/svg" width="40.001" height="40.001" viewBox="0 0 40.001 40.001">
  <g id="Grupo_14608" data-name="Grupo 14608" transform="translate(0 0)">
    <path id="Trazado_25770" data-name="Trazado 25770" d="M21,41A20,20,0,1,1,41,21,19.943,19.943,0,0,1,21,41ZM21,4.636A16.364,16.364,0,1,0,37.365,21,16.3,16.3,0,0,0,21,4.636Z" transform="translate(-1 -1)" fill="#e52a1b"/>
  </g>
  <g id="Grupo_14609" data-name="Grupo 14609" transform="translate(12.728 12.728)">
    <path id="Trazado_25771" data-name="Trazado 25771" d="M9.818,22.546A1.651,1.651,0,0,1,8.545,22a1.758,1.758,0,0,1,0-2.546L19.455,8.545A1.8,1.8,0,0,1,22,11.091L11.091,22A1.651,1.651,0,0,1,9.818,22.546Z" transform="translate(-8 -8)" fill="#e52a1b"/>
  </g>
  <g id="Grupo_14610" data-name="Grupo 14610" transform="translate(12.728 12.728)">
    <path id="Trazado_25772" data-name="Trazado 25772" d="M20.728,22.546A1.651,1.651,0,0,1,19.455,22L8.545,11.091a1.8,1.8,0,0,1,2.546-2.546L22,19.455A1.758,1.758,0,0,1,22,22,1.651,1.651,0,0,1,20.728,22.546Z" transform="translate(-8 -8)" fill="#e52a1b"/>
  </g>
</svg>
