<svg id="Íconos_-_Claro_-_E-mail" data-name="Íconos - Claro - E-mail" xmlns="http://www.w3.org/2000/svg" width="42" height="42" viewBox="0 0 42 42">
  <rect id="Rectángulo_137" data-name="Rectángulo 137" width="42" height="42" fill="none"/>
  <circle id="Oval" cx="18" cy="18" r="18" transform="translate(3 3)" fill="#e9eaeb"/>
  <g id="Group" transform="translate(7 6)">
    <g id="Grupo_372" data-name="Grupo 372">
      <path id="Path" d="M27.5,23.1V12.6a2.289,2.289,0,0,0-.8-1.7L16.2,1.5a3.345,3.345,0,0,0-4.4,0L1.4,10.9a2.136,2.136,0,0,0-.8,1.7V23.1Z" fill="#e9eaeb"/>
      <path id="Shape" d="M28,23.7H0v-11a2.814,2.814,0,0,1,1-2.1L11.4,1.2a3.822,3.822,0,0,1,5.1,0L27,10.5a2.814,2.814,0,0,1,1,2.1ZM1.1,22.6H26.9v-10a1.309,1.309,0,0,0-.6-1.2L15.8,1.9a2.872,2.872,0,0,0-3.7,0L1.7,11.3a1.612,1.612,0,0,0-.6,1.3Z"/>
    </g>
    <g id="Grupo_373" data-name="Grupo 373" transform="translate(3 4)">
      <rect id="Rectangle" width="19.1" height="17.9" transform="translate(1.5 0.6)" fill="#fff"/>
      <path id="Shape-2" data-name="Shape" d="M21.1,19.1H.9V.1H21v19ZM2,18H20V1.2H2Z"/>
    </g>
    <g id="Grupo_374" data-name="Grupo 374" transform="translate(0 13)">
      <path id="Path-2" data-name="Path" d="M26.9.6c-1.2,1-7.9,6.5-8.7,7a10.108,10.108,0,0,1-4.2.9,9.354,9.354,0,0,1-4.2-.9c-.7-.4-7.4-6-8.7-7H.5V14a1.752,1.752,0,0,0,1.7,1.7H25.8A1.752,1.752,0,0,0,27.5,14V.6Z" fill="#ef3829"/>
      <path id="Shape-3" data-name="Shape" d="M25.8,16.3H2.2A2.242,2.242,0,0,1,0,14V0H1.3l.1.1c.3.2.9.7,1.6,1.3C5.1,3.1,9.4,6.7,10,7a8.937,8.937,0,0,0,4,.8A9.285,9.285,0,0,0,18,7c.5-.3,4.9-3.9,7-5.6C25.7.8,26.3.3,26.6.1l.1-.1H28V14A2.242,2.242,0,0,1,25.8,16.3ZM1.1,1.3V14a1.11,1.11,0,0,0,1.1,1.1H25.8A1.11,1.11,0,0,0,26.9,14V1.3c-.3.3-.8.6-1.3,1.1C22.2,5.2,19,7.8,18.5,8.1a9.65,9.65,0,0,1-4.5,1,9.33,9.33,0,0,1-4.5-1C9,7.8,5.8,5.2,2.4,2.4A9.478,9.478,0,0,0,1.1,1.3Z"/>
    </g>
    <path id="Rectangle-2" data-name="Rectangle" d="M1.369,22.629h9v1.1h-9Z" transform="matrix(0.683, -0.73, 0.73, 0.683, -15.065, 11.625)"/>
    <path id="Rectangle-3" data-name="Rectangle" d="M21.6,18.692h1.1v9H21.6Z" transform="translate(-9.868 21.393) rotate(-43.095)"/>
    <rect id="Rectangle-4" data-name="Rectangle" width="10.7" height="1.1" transform="translate(8.4 9.7)"/>
    <rect id="Rectangle-5" data-name="Rectangle" width="10.7" height="1.1" transform="translate(8.4 11.9)"/>
    <rect id="Rectangle-6" data-name="Rectangle" width="7.3" height="1.1" transform="translate(8.4 14.2)"/>
  </g>
</svg>
