<svg id="Íconos_-_Claro_-_Telefono" data-name="Íconos - Claro - Telefono" xmlns="http://www.w3.org/2000/svg" width="42" height="42" viewBox="0 0 42 42">
  <rect id="Rectángulo_269" data-name="Rectángulo 269" width="42" height="42" fill="none"/>
  <path id="Fill-1" d="M19.2,4A15.2,15.2,0,1,1,4,19.2,15.2,15.2,0,0,1,19.2,4" transform="translate(1.8 1.801)" fill="#e8e8e9" fill-rule="evenodd"/>
  <g id="Group-5" transform="translate(2 2)">
    <path id="Fill-3" d="M6.439,6.439l-.95-.844A19.279,19.279,0,0,1,19,0a17.471,17.471,0,0,1,3.378.317l-.211,1.161A16.11,16.11,0,0,0,19,1.161,18.1,18.1,0,0,0,6.439,6.439ZM37.683,22.378l-1.161-.211A16.11,16.11,0,0,0,36.839,19,18,18,0,0,0,31.667,6.439l.844-.844A19.2,19.2,0,0,1,38,19a17.47,17.47,0,0,1-.317,3.378ZM5.595,32.406h0A18.85,18.85,0,0,1,0,19a17.471,17.471,0,0,1,.317-3.378l1.161.211A16.11,16.11,0,0,0,1.161,19,18,18,0,0,0,6.333,31.561ZM19,38a17.47,17.47,0,0,1-3.378-.317l.211-1.161A16.11,16.11,0,0,0,19,36.839a17.555,17.555,0,0,0,12.561-5.172l.95.844A19.639,19.639,0,0,1,19,38Z" transform="translate(0 0)" fill="#e8e8e9" fill-rule="evenodd"/>
  </g>
  <g id="Group" transform="translate(10.36 4.09)">
    <path id="Fill-6" d="M19.194,4.539V3.223A2.625,2.625,0,0,0,16.563.593H3.223a2.624,2.624,0,0,0-2.63,2.63V4.539Z" transform="translate(-0.03 -0.03)" fill="#ef3829" fill-rule="evenodd"/>
    <path id="Fill-8" d="M1.033,4.039H18.6V3.194a2.126,2.126,0,0,0-2.161-2.161H3.194A2.127,2.127,0,0,0,1.033,3.194Zm18.6,1.034H0V3.194A3.168,3.168,0,0,1,3.194,0H16.441a3.167,3.167,0,0,1,3.194,3.194Z" transform="translate(0 0)" fill-rule="evenodd"/>
    <path id="Fill-10" d="M.592,29.469V32.1a2.908,2.908,0,0,0,2.631,2.63H16.471A3,3,0,0,0,19.1,32.1V29.469Z" transform="translate(-0.03 -1.473)" fill="#ef3829" fill-rule="evenodd"/>
    <path id="Fill-12" d="M1.033,29.91v2.161a2.4,2.4,0,0,0,2.161,2.162H16.441A2.494,2.494,0,0,0,18.6,32.071V29.91Zm15.5,5.356H3.194A3.514,3.514,0,0,1,0,32.071V28.877H19.634v3.194a3.426,3.426,0,0,1-3.1,3.2Z" transform="translate(0 -1.444)" fill-rule="evenodd"/>
    <path id="Fill-14" d="M.592,28.14h18.6V4.746H.592Z" transform="translate(-0.03 -0.237)" fill="#fff" fill-rule="evenodd"/>
    <path id="Fill-16" d="M1.033,27.645H18.6V5.284H1.033ZM0,28.68H19.635V4.253H0Z" transform="translate(0 -0.213)" fill-rule="evenodd"/>
    <path id="Fill-17" d="M9,32.679h3.287V31.646H9Z" transform="translate(-0.45 -1.582)" fill-rule="evenodd"/>
  </g>
</svg>
