<svg id="Íconos_-_Claro_-_Postpago" data-name="Íconos - Claro - Postpago" xmlns="http://www.w3.org/2000/svg" width="42" height="42" viewBox="0 0 42 42">
  <rect id="Rectángulo_216" data-name="Rectángulo 216" width="42" height="42" fill="none"/>
  <circle id="Oval" cx="13.966" cy="13.966" r="13.966" transform="translate(11 6.305)" fill="#e8e8e9"/>
  <g id="Group" transform="translate(33.8 8.971)">
    <rect id="Rectangle" width="1.279" height="4.584" transform="translate(2.132 0.853)" fill="#bbbec1"/>
    <rect id="Rectangle-2" data-name="Rectangle" width="4.584" height="1.279" transform="translate(0.533 2.452)" fill="#bbbec1"/>
    <rect id="Rectangle-3" data-name="Rectangle" width="1.279" height="4.584" transform="translate(2.132 0.853)" fill="#bbbec1"/>
    <rect id="Rectangle-4" data-name="Rectangle" width="4.584" height="1.279" transform="translate(0.533 2.452)" fill="#bbbec1"/>
  </g>
  <g id="Group-2" data-name="Group" transform="translate(26.454 2.842)">
    <rect id="Rectangle-5" data-name="Rectangle" width="1.279" height="4.584" transform="translate(2.026 0.213)" fill="#bbbec1"/>
    <rect id="Rectangle-6" data-name="Rectangle" width="4.584" height="1.279" transform="translate(0.426 1.919)" fill="#bbbec1"/>
    <rect id="Rectangle-7" data-name="Rectangle" width="1.279" height="4.584" transform="translate(2.026 0.213)" fill="#bbbec1"/>
    <rect id="Rectangle-8" data-name="Rectangle" width="4.584" height="1.279" transform="translate(0.426 1.919)" fill="#bbbec1"/>
  </g>
  <g id="Group-3" data-name="Group" transform="translate(3 2.574)">
    <path id="Path" d="M20.043,5.224V3.838a2.822,2.822,0,0,0-2.772-2.772H3.412A2.822,2.822,0,0,0,.64,3.838V5.224Z" fill="#ef3829"/>
    <path id="Shape" d="M20.683,5.864H0V3.838A3.368,3.368,0,0,1,3.412.426H17.271a3.368,3.368,0,0,1,3.412,3.412ZM1.279,4.584H19.3V3.838a2.138,2.138,0,0,0-2.132-2.132H3.3A2.138,2.138,0,0,0,1.173,3.838l.107.746Z"/>
  </g>
  <g id="Group-4" data-name="Group" transform="translate(3 31.359)">
    <path id="Path-2" data-name="Path" d="M.64.96V3.731A3.071,3.071,0,0,0,3.412,6.5H17.271a3.17,3.17,0,0,0,2.772-2.772V.96Z" fill="#ef3829"/>
    <path id="Shape-2" data-name="Shape" d="M17.271,7.25H3.412A3.669,3.669,0,0,1,0,3.838V.426H20.683V3.838A3.959,3.959,0,0,1,17.271,7.25ZM1.279,1.6V3.731A2.488,2.488,0,0,0,3.412,5.864H17.271A2.488,2.488,0,0,0,19.4,3.731V1.6Z"/>
  </g>
  <rect id="Rectangle-9" data-name="Rectangle" width="19.403" height="24.521" transform="translate(3.64 7.799)" fill="#fff"/>
  <path id="Shape-3" data-name="Shape" d="M20.683,30.516H0V4.716H20.683Zm-19.4-1.279H19.3V6H1.279Z" transform="translate(3 2.441)"/>
  <rect id="Rectangle-10" data-name="Rectangle" width="3.412" height="1.279" transform="translate(11.955 34.451)"/>
  <g id="Group-3-2" data-name="Group-3" transform="translate(14.692 10.541)">
    <path id="Fill-27" d="M.653,2.664v.38H4.676V.653H2.665A1.973,1.973,0,0,0,.653,2.664" fill="#e9e9ea" fill-rule="evenodd"/>
    <path id="Fill-28" d="M17.182,19.138H6.688a2.043,2.043,0,0,1-2.011-2.011V2.664A2.007,2.007,0,0,0,2.664.653H15.17a2.007,2.007,0,0,1,2.012,2.011Z" fill="#fff" fill-rule="evenodd"/>
    <path id="Fill-29" d="M8.7,17.127a2.007,2.007,0,0,1-2.012,2.011H17.563a2.043,2.043,0,0,0,2.011-2.011Z" fill="#fff" fill-rule="evenodd"/>
    <path id="Fill-30" d="M6.362,18.486v.026A1.42,1.42,0,0,1,5.22,17.181V2.664A2.623,2.623,0,0,0,4.849,1.3H15.17a1.235,1.235,0,0,1,.931.334,1.409,1.409,0,0,1,.428,1.025v13.81H8.1v.652a1.373,1.373,0,0,1-1.413,1.36Zm10.21.054H8.884a3.068,3.068,0,0,0,.343-.761h9.564a1.4,1.4,0,0,1-1.011.73ZM0,2.664V3.7H3.752V2.446H1.268A1.4,1.4,0,0,1,2.665,1.3h.3A1.41,1.41,0,0,1,4.024,2.61V17.072a2.658,2.658,0,0,0,2.338,2.686v.033H17.78v-.022a2.623,2.623,0,0,0,2.446-2.643v-.652H17.78V2.664A2.667,2.667,0,0,0,15.115,0H2.284V.037A2.623,2.623,0,0,0,0,2.664Z" fill-rule="evenodd"/>
    <path id="Fill-31" d="M7.123,5.273h7.937V4.024H7.123Z" fill-rule="evenodd"/>
    <path id="Fill-32" d="M7.123,8.067h7.937V6.817H7.123Z" fill-rule="evenodd"/>
    <path id="Fill-33" d="M7.123,10.861h7.937V9.611H7.123Z" fill-rule="evenodd"/>
    <path id="Fill-34" d="M9.951,13.655h5.11V12.406H9.951Z" fill-rule="evenodd"/>
  </g>
</svg>
