<svg id="Íconos_-_Claro-_Alerta_Información" data-name="Íconos - Claro- Alerta / Información" xmlns="http://www.w3.org/2000/svg" width="62" height="62" viewBox="0 0 62 62">
  <rect id="Rectángulo_93" data-name="Rectángulo 93" width="62" height="62" fill="none"/>
  <g id="Group" transform="translate(13.286 13.392)">
    <ellipse id="Oval" cx="17.093" cy="17.14" rx="17.093" ry="17.14" transform="translate(0.932 0.935)" fill="#fff"/>
    <path id="Shape" d="M18.8,36.928A18.075,18.075,0,1,1,36.826,18.853,18.063,18.063,0,0,1,18.8,36.928Zm0-34.28a16.205,16.205,0,0,0,0,32.411,16.205,16.205,0,0,0,0-32.411Z" transform="translate(-0.776 -0.778)"/>
  </g>
  <path id="Path" d="M.27,31.164c0-.623-.155-1.247-.155-2.026A28.119,28.119,0,0,1,27,0V1.714A26.266,26.266,0,0,0,1.979,29.138c0,.623.155,1.247.155,1.87Z" transform="translate(2.861 2.952)" fill="#bcc0c4"/>
  <path id="Path-2" data-name="Path" d="M41.772,40.421l-1.554-.779A26.39,26.39,0,0,0,27.476,3.336l.777-1.558A27.851,27.851,0,0,1,45.035,26.4,28.191,28.191,0,0,1,41.772,40.421Z" transform="translate(13.88 3.666)" fill="#bcc0c4"/>
  <path id="Path-3" data-name="Path" d="M26.83,44.024A28.155,28.155,0,0,1,3.211,30.935L4.764,30A25.838,25.838,0,0,0,27.917,42.154a25.457,25.457,0,0,0,14.451-5.142l1.088,1.4a28.747,28.747,0,0,1-15.383,5.454A3.852,3.852,0,0,1,26.83,44.024Z" transform="translate(4.115 15.024)" fill="#bcc0c4"/>
  <path id="Path-4" data-name="Path" d="M12.083,42.5a7.789,7.789,0,0,1-1.243-1.091A23.107,23.107,0,0,1,9.6,9L11,10.247a21.22,21.22,0,0,0,1.088,29.917c.311.312.777.623,1.088.935Z" transform="translate(4.254 6.575)" fill="#bcc0c4"/>
  <g id="Grupo_13722" data-name="Grupo 13722" transform="translate(28.048 19.571)">
    <g id="Grupo_13722-2" data-name="Grupo 13722" transform="translate(0 17.603)">
      <rect id="Rectángulo_6140" data-name="Rectángulo 6140" width="5.087" height="4.247" rx="1.285" transform="translate(0.826 0.827)" fill="#e03224"/>
      <path id="Trazado_24986" data-name="Trazado 24986" d="M438.841,388.121H438a2.949,2.949,0,0,1,0-5.9h.839a2.949,2.949,0,0,1,0,5.9ZM438,383.874a1.3,1.3,0,0,0,0,2.594h.839a1.3,1.3,0,0,0,0-2.594Z" transform="translate(-435.052 -382.222)"/>
    </g>
    <g id="Grupo_13723" data-name="Grupo 13723" transform="translate(0 0)">
      <rect id="Rectángulo_6141" data-name="Rectángulo 6141" width="5.087" height="14.106" rx="0.962" transform="translate(0.826 0.827)" fill="#e03224"/>
      <path id="Trazado_24987" data-name="Trazado 24987" d="M439.375,387.328h-1.907a2.419,2.419,0,0,1-2.416-2.416V373.985a2.419,2.419,0,0,1,2.416-2.416h1.907a2.418,2.418,0,0,1,2.416,2.416v10.927A2.418,2.418,0,0,1,439.375,387.328Zm-1.907-14.106a.764.764,0,0,0-.763.763v10.927a.764.764,0,0,0,.763.763h1.907a.764.764,0,0,0,.763-.763V373.985a.764.764,0,0,0-.763-.763Z" transform="translate(-435.052 -371.569)"/>
    </g>
  </g>
</svg>
